<?xml version="1.0" encoding="UTF-8"?>
<svg id="Layer_1" data-name="Layer 1" xmlns="http://www.w3.org/2000/svg" viewBox="0 0 384.59 129.24">
  <defs>
    <style>
      .cls-1 {
        fill: #1f4e8d;
        stroke-width: 0px;
      }
    </style>
  </defs>
  <path class="cls-1" d="m9.57,2.4H0v19.78l.47-1.41,19.93,59.09H0v13.56h24.52l11.26,34.26h17.69L9.57,2.4Z"/>
  <path class="cls-1" d="m102.88,2.58c6.87,0,13.11.77,18.72,2.32,5.61,1.55,10.48,3.88,14.6,7,4.12,3.12,7.3,6.94,9.53,11.46,2.23,4.41,3.35,9.45,3.35,15.11,0,4.75-.74,9.07-2.23,12.97-1.49,3.89-3.58,7.17-6.27,9.83-2.69,2.66-5.7,4.89-9.02,6.7-3.32,1.8-7.04,3.28-11.16,4.42l33.32,55.3h-18.03l-31.6-53.33h-26.28v53.33h-15.28V2.58h40.36Zm30.23,35.89c0-7.73-2.69-13.38-8.07-16.96-5.38-3.58-12.77-5.37-22.15-5.37h-25.07v44.48h25.07c20.15,0,30.23-7.38,30.23-22.15Z"/>
  <path class="cls-1" d="m207.01,115.58c8.01,0,14.35-2.1,19.02-6.31,4.66-4.21,8.14-10.12,10.43-17.73l14.86,4.38c-5.73,16.09-15.43,26.42-29.11,31-4.64,1.55-9.7,2.32-15.2,2.32-15.63,0-27.88-6.1-36.75-18.29-8.47-11.62-12.71-27.02-12.71-46.2,0-14.43,2.38-26.83,7.13-37.22,4.75-10.39,11.74-17.96,20.95-22.71,6.13-3.21,13.19-4.81,21.21-4.81,15.69,0,27.96,6.21,36.84,18.63,2.86,4.01,5.24,8.53,7.13,13.57l-14.77,4.29c-2.35-7.38-5.8-13.02-10.35-16.92-4.55-3.89-10.83-5.84-18.85-5.84-16.49,0-26.88,9.99-31.17,29.97-1.32,6.3-1.98,13.31-1.98,21.04,0,24.5,6.18,40.25,18.55,47.23,4.18,2.4,9.1,3.61,14.77,3.61Z"/>
  <path class="cls-1" d="m280.12,55.65V2.24h-15.28v125.44h15.28v-58.47h20.52v-13.56h-20.52ZM336.44,2.24v53.41h-20.68v13.56h20.68v58.47h15.12V2.24h-15.12Z"/>
  <path class="cls-1" d="m368.62,2.23h15.97v125.46h-15.97V2.23Z"/>
</svg>