<?xml version="1.0" encoding="UTF-8"?>
<svg id="Layer_1" data-name="Layer 1" xmlns="http://www.w3.org/2000/svg" viewBox="0 0 819.73 218.75">
  <defs>
    <style>
      .cls-1 {
        fill: #204d8c;
        stroke-width: 0px;
      }
    </style>
  </defs>
  <path class="cls-1" d="m127.9,184.32L55.09,9.15C52.45,3.06,47.88.01,41.38.01s-10.81,2.59-13.35,7.77l17.82,45.54-.1.05,30.36,77.02H10.15L0,155.08h84.94l26.2,63.67c6.09-1.22,10.87-3.86,14.32-7.92,3.45-4.06,5.18-8.83,5.18-14.32,0-3.86-.91-7.92-2.74-12.19Z"/>
  <path class="cls-1" d="m227.11,27.74V2.75h-46.81c-4.27,0-7.77,1.27-10.51,3.81-2.74,2.54-4.11,5.74-4.11,9.6v202.59c9.34,0,16.4-2.03,21.17-6.09,4.77-4.06,7.16-9.95,7.16-17.67v-66.11h33.1v-24.68h-33.1V27.74h33.1Zm70.47,89.87v-.91c20.92-9.95,31.38-26.91,31.38-50.88,0-19.09-5.84-34.37-17.52-45.85-11.68-11.47-27.37-17.21-47.07-17.21h-6.8v24.98h5.89c11.78,0,20.82,3.25,27.11,9.75,6.3,6.5,9.44,15.84,9.44,28.03s-3.3,21.43-9.9,28.33c-6.6,6.91-15.49,10.36-26.66,10.36h-5.89v24.68h7.72c10.56,0,18.53,3.1,23.91,9.29,5.38,6.19,8.07,15.28,8.07,27.27v53.31c9.34,0,16.45-2.03,21.33-6.09,4.87-4.06,7.31-9.95,7.31-17.67v-31.38c0-11.17-2.44-20.67-7.31-28.48-4.87-7.82-11.88-13.66-21.02-17.52Z"/>
  <path class="cls-1" d="m535.67,141.67c-4.16-3.86-9.6-5.79-16.3-5.79-1.22,0-3.25.2-6.09.61.41,4.47.61,8.33.61,11.58,0,8.94-2.54,16.81-7.62,23.61-5.08,6.8-12.19,12.14-21.32,15.99-4.42,1.88-9.09,3.25-14.12,4.21v25.89c10.36-1.17,19.9-3.4,28.59-6.8,13.3-5.18,23.71-12.44,31.23-21.78,7.51-9.34,11.27-20,11.27-31.99,0-6.5-2.08-11.68-6.25-15.54Zm-159.02-105.71c-7.41,11.37-11.12,24.37-11.12,38.99v68.24c0,14.62,3.71,27.67,11.12,39.15,7.41,11.47,17.82,20.41,31.23,26.81,9.85,4.67,20.67,7.67,32.5,8.89v-25.59c-6.4-1.02-12.29-2.79-17.72-5.38-9.04-4.26-16.04-10.21-21.02-17.82s-7.46-16.3-7.46-26.05v-68.24c0-9.55,2.49-18.13,7.46-25.74s11.93-13.51,20.87-17.67c5.48-2.54,11.47-4.32,17.87-5.33V.62c-11.98,1.17-22.95,4.11-32.8,8.83-13.2,6.3-23.51,15.13-30.92,26.5Zm152.63-5.48c-7.41-9.55-17.72-17.01-30.92-22.39-8.38-3.4-17.57-5.74-27.52-7.01v26c4.62.91,8.94,2.28,13.05,4.01,9.04,3.86,16.04,9.24,21.02,16.15,4.98,6.91,7.46,14.72,7.46,23.46,0,5.28-.2,9.14-.61,11.58,2.84.41,4.98.61,6.4.61,6.7,0,12.08-1.73,16.15-5.18s6.09-8.23,6.09-14.32c0-12.39-3.71-23.36-11.12-32.9Z"/>
  <path class="cls-1" d="m605.58,95.98V.01c-9.34,0-16.45,2.03-21.32,6.09-4.87,4.06-7.31,9.95-7.31,17.67v194.97c9.34,0,16.45-2.03,21.32-6.09,4.87-4.06,7.31-9.95,7.31-17.67v-73.72h37.88v-25.29h-37.88ZM721.04,6.11c-4.87,4.06-7.31,9.95-7.31,17.67v72.2h-39.81v25.29h39.81v97.49c9.34,0,16.45-2.03,21.32-6.09,4.87-4.06,7.31-9.95,7.31-17.67V.01c-9.34,0-16.45,2.03-21.32,6.09Z"/>
  <path class="cls-1" d="m791.09,23.76c0-7.51,2.48-13.35,7.46-17.52,4.97-4.16,12.03-6.25,21.17-6.25v194.97c0,7.52-2.49,13.36-7.46,17.52-4.98,4.16-12.03,6.25-21.17,6.25V23.76Z"/>
</svg>